<?xml version="1.0"?>
<svg width="200" height="200" xmlns="http://www.w3.org/2000/svg" xmlns:svg="http://www.w3.org/2000/svg">
 <!-- Created with SVG-edit - http://svg-edit.googlecode.com/ -->
 <g>
  <title>Layer 1</title>
  <path fill="none" stroke="#000000" stroke-width="5" stroke-dasharray="null" stroke-linejoin="null" stroke-linecap="null" id="svg_7" d="m85,74.5c0.610657,-0.646667 1.13578,-1.526428 1.599998,-2.138657c0.620514,-0.818375 1.642494,-0.961761 2.11467,-1.662674c0.47879,-0.710732 0.802765,-1.549026 1.201332,-2.398666c0.403633,-0.86042 0.69471,-1.516273 1.109329,-2.400002c0.37793,-0.805534 1.146843,-1.110985 1.97467,-1.566658c0.734253,-0.404194 0.820068,-1.441883 1.35717,-2.128845c0.581589,-0.743889 1.391731,-0.988438 1.864319,-1.804497c0.386009,-0.66655 1.089409,-1.18927 1.778511,-1.900002c0.573212,-0.591209 0.862007,-1.513 1.520828,-2c0.685974,-0.507069 1.087234,-1.305431 1.764503,-1.916c0.646217,-0.582588 1.476479,-0.73225 2.103996,-1.484001c0.547234,-0.65556 0.972305,-1.361279 1.710503,-1.821499c0.717171,-0.447109 0.89257,-1.56863 1.604668,-1.773998c0.903534,-0.260582 1.71312,-0.558941 2.174004,-1.226002c0.504036,-0.72953 0.566269,-1.517551 1.068825,-2.13567c0.572861,-0.704578 0.94165,-1.367489 1.53183,-2.14283c0.559082,-0.73447 1.19136,-1.30685 1.5,-2.020828c0.348961,-0.80722 -0.232765,-2.046291 0.456841,-2.443172c0.749664,-0.43145 1.875816,-0.228878 2.278671,-0.837337c0.543884,-0.821442 1.21711,-0.805672 2,-1.284c0.803329,-0.49081 1.243614,-1.148613 1.985329,-1.562c0.76368,-0.425632 1.503304,-0.895863 2.400002,-1.231163c0.850639,-0.318089 1.700005,-0.121498 2.599998,-0.121498c0.900002,0 1.800003,0 2.700005,0c0.900002,0 1.799995,0 2.700005,0c0.899994,0 1.70018,-0.01799 2.599991,0c0.900543,0.018002 1.692307,0.444199 2.400009,1.099831c0.593628,0.549961 1.447418,0.808308 2.204498,1.257328c0.628891,0.373013 1.498093,1.085632 2.211502,1.35751c0.93869,0.357731 1.702805,0.785831 2.483994,1.11866c0.751541,0.32019 1.726501,-0.017078 2.600006,0.202671c0.862808,0.217052 1.69371,0.747501 2.347321,1.316662c0.596542,0.519459 1.276291,0.90641 1.852676,1.448669c0.709671,0.667671 1.082687,1.544621 1.625336,2.173328c0.518005,0.60017 1.096451,1.37159 1.453323,2.12534c0.404373,0.854073 0.533508,1.59922 1.121338,2.379173c0.493103,0.654259 1.598099,0.849358 1.914673,1.720829c0.30867,0.849701 -0.251755,1.948891 0.251999,2.633327c0.480591,0.652992 0.833328,1.26667 0.833328,2.166672c0,0.799999 0,1.743999 0,2.666672c0,0.669327 0,1.434658 0,2.231987c0,1.434669 0,2.172672 0,3.101341c0,0.814331 0,1.769333 0,2.520828c0,0.796501 0,1.793831 0,2.668503c0,1.010658 0,1.810669 0,2.810669c0,0.78933 0,1.833328 0,2.589333c0,0.910667 0,1.810669 0,2.71067c0,0.899986 0,1.799995 0,2.699997c0,0.800003 0,1.699989 0,2.599998c0,0.900002 0.094009,1.847092 -0.352661,2.700005c-0.393951,0.752228 -0.747528,1.490623 -1.147339,2.199997c-0.494965,0.878189 -1.225586,1.373909 -1.489334,2.110657c-0.299759,0.837372 0.084793,1.833885 -0.294662,2.589333c-0.435577,0.86721 -0.734528,1.623329 -1.001343,2.568008c-0.209,0.73999 -0.45845,1.496094 -1.010162,2.417671c-0.380875,0.6362 -0.68985,1.486389 -0.704666,2.356995c-0.016281,0.957413 0.013947,1.722855 -0.356995,2.656494c-0.276474,0.695869 -0.7547,1.561241 -1.042831,2.487511c-0.208633,0.6707 -0.354355,1.36293 -0.800003,2.541321c-0.272491,0.72052 -0.804214,1.602211 -1.300003,2.272011c-0.605164,0.817543 -0.951569,1.531036 -1.5,2.333328c-0.460922,0.674278 -1.207031,1.184822 -1.642838,1.866661c-0.526657,0.823982 -0.793167,1.700012 -1.357162,2.300011c-0.563995,0.599998 -0.876022,1.567833 -1.357162,2.300003c-0.521927,0.794235 -1.169281,1.174568 -1.841507,1.899986c-0.537888,0.58046 -0.961761,1.412094 -1.602661,1.969337c-0.685272,0.595833 -0.855225,1.367195 -1.198669,2.30983c-0.306458,0.841095 -0.928421,1.608322 -1.600006,2.084846c-0.725647,0.514885 -1.357773,0.978409 -1.401321,1.918655c-0.037445,0.808571 -0.623749,1.332726 -1.294174,1.874504c-0.734451,0.593521 -0.528061,1.682083 -0.789825,2.442841c-0.268234,0.779556 -1.117325,1.397354 -1.714676,2c-0.602676,0.608002 -1.239838,1.344696 -1.589325,2.02533c-0.503136,0.979828 -0.618973,1.772522 -1.036003,2.585327c-0.392159,0.764343 -0.430008,1.633759 -0.795998,2.567841c-0.257439,0.657028 -0.725342,1.559036 -1.00016,2.343002c-0.251648,0.717865 -0.799911,1.668427 -1.167839,2.4785c-0.269363,0.593033 -0.557205,1.596222 -0.599998,2.363998c-0.059807,1.072769 -0.474365,1.655945 -1.110664,2.278839c-0.502296,0.491699 -1.060341,1.494095 -1.464012,2.1465c-0.475639,0.768723 -0.299446,1.767303 -0.719986,2.610657c-0.329941,0.661652 -0.770393,1.499039 -1.216011,2.300003c-0.44455,0.799057 -0.445633,1.701645 -0.50016,2.600006c-0.042732,0.703857 -0.595451,1.494293 -1.399841,1.874664c-0.88031,0.41626 -1.336868,1.062225 -1.683998,1.825333c-0.38858,0.854263 -0.78157,1.609863 -0.920502,2.5c-0.127815,0.818954 -0.832047,1.468521 -0.984825,2.300003c-0.166504,0.906189 -0.207077,1.934875 -0.62133,2.538666c-0.576935,0.840881 -1.555763,1.017273 -2.089333,1.623001c-0.579971,0.658386 -0.779144,1.5112 -1.6045,2.132996c-0.772629,0.582062 -1.55545,0.926514 -1.98568,1.457169c-0.676491,0.834396 -0.900681,1.774185 -1.41433,2.34816c-0.658035,0.735321 -1.399071,1.217285 -1.859505,1.900009c-0.554176,0.821732 -0.34053,1.844528 -0.719986,2.599991c-0.435593,0.867203 -0.767708,1.500534 -1.216011,2.300003c-0.446373,0.796036 -0.945969,1.506943 -1.821663,1.499664c-0.721153,-0.005997 -1.855705,-0.310852 -2.361,-0.569c-0.815315,-0.41655 -1.586273,-0.90007 -2.346664,-1.546661c-0.699532,-0.594833 -1.10743,-1.409683 -1.570671,-2.022675c-0.61734,-0.81691 -1.209709,-1.387726 -1.685333,-2.059998c-0.552017,-0.780273 -1.388008,-1.082336 -1.935997,-1.679993c-0.585091,-0.638107 -0.552399,-1.543365 -1.221329,-2c-0.718216,-0.49028 -1.17054,-0.842422 -1.598999,-1.60051c-0.39962,-0.707062 -1.456123,-0.550262 -2.041,-1.322159c-0.498062,-0.657318 -1.120033,-1.395981 -1.717346,-1.998672c-0.592018,-0.597351 -0.941055,-1.479965 -1.421654,-2.300003c-0.40815,-0.696426 -1.2658,-1.09993 -2.025002,-1.535995c-0.920982,-0.528976 -1.441765,-0.839218 -2.232498,-1.363998c-0.514824,-0.34166 -1.568382,-1.100159 -2.171501,-1.661331c-0.701302,-0.652527 -1.10862,-1.114395 -1.849342,-1.817841c-0.488991,-0.464386 -1.368958,-1.1353 -2.11467,-1.560822c-0.884018,-0.50444 -1.390488,-0.975571 -2.218658,-1.793335c-0.544754,-0.537903 -1.039993,-1.061569 -1.819328,-1.814835c-0.515053,-0.497803 -1.598862,-0.770035 -2.180672,-1.518509c-0.521561,-0.670959 -0.450363,-1.580566 -1.166672,-2c-0.639099,-0.374222 -0.74498,-1.545624 -1.084,-2.263992c-0.368851,-0.781601 -1.25251,-1.221512 -1.741329,-1.856003c-0.539051,-0.699677 -1.1311,-1.589417 -1.653843,-2.171661c-0.59647,-0.664383 -1.220829,-1.241669 -1.931488,-1.952332c-0.47467,-0.47467 -1.26379,-1.218491 -1.728012,-1.764008c-0.657307,-0.772415 -0.873238,-1.674164 -1.403,-2.346161c-0.556396,-0.705795 -1.283657,-1.304504 -1.805656,-1.826508c-0.76733,-0.767334 -1.348164,-1.34816 -1.952671,-1.952667c-0.699989,-0.699997 -1.22501,-1.216675 -2.02116,-2.021332c-0.49612,-0.501419 -1.074451,-0.963806 -1.573502,-1.930496c-0.352219,-0.682251 -0.668518,-1.521225 -1.126167,-2.268997c-0.489952,-0.800552 -0.960861,-1.556122 -1.353844,-2.253845c-0.380928,-0.676346 -0.93792,-1.652115 -1.450657,-2.439987c-0.343521,-0.52784 -1.018223,-1.444138 -1.549343,-2.14534c-0.51944,-0.685791 -0.95142,-1.401382 -1.450657,-2.316002c-0.352711,-0.646164 -0.65406,-1.294907 -1.292,-2.273338c-0.382103,-0.586021 -0.866261,-1.178535 -1.425171,-2.036156c-0.470459,-0.721916 -0.948212,-1.529045 -1.395,-2.361c-0.214748,-0.399895 -0.81131,-1.802994 -0.997162,-2.388176c-0.279728,-0.880737 -0.724037,-1.936256 -0.95084,-2.35067c-0.511868,-0.93528 -0.82251,-1.418495 -1.449158,-2.41333c-0.309872,-0.491905 -1.16773,-1.833199 -1.401001,-2.215324c-0.572889,-0.938431 -0.97831,-1.689796 -1.585499,-2.486c-0.4711,-0.617752 -1.07333,-1.150093 -1.512171,-2.20134c-0.24935,-0.597305 -0.35907,-1.323143 -1.018669,-2.282661c-0.389521,-0.56665 -1.15901,-1.318642 -1.648001,-2.149345c-0.4016,-0.682243 -0.579611,-1.664528 -1.164169,-2.58783c-0.353361,-0.558136 -0.847561,-1.066727 -1.56916,-1.809494c-0.61599,-0.634064 -1.276001,-1.211975 -1.866671,-2.090675c-0.43948,-0.653778 -0.865309,-1.540619 -1.42083,-2.178658c-0.609499,-0.70005 -1.17532,-1.111221 -1.769341,-1.847343c-0.5938,-0.735855 -0.853849,-1.641548 -1.209829,-2.486c-0.33478,-0.794144 -0.558,-1.229988 -1,-2.166656c-0.442,-0.936668 -0.71339,-1.35379 -1.24533,-2.776001c-0.24346,-0.650909 -0.4144,-1.559319 -0.68,-2.47467c-0.21637,-0.745659 -0.52789,-1.776695 -0.570169,-2.497498c-0.05296,-0.902962 0.168799,-1.787369 -0.025331,-2.731003c-0.17841,-0.86721 -0.91828,-1.614708 -0.97917,-2.520828c-0.05363,-0.79821 0,-1.671997 0,-2.542831c0,-0.718498 0.02535,-1.509285 -0.00133,-2.7705c-0.017779,-0.84053 -0.28586,-1.636868 -0.573339,-2.38401c-0.39828,-1.035107 -0.38418,-1.660027 -0.41466,-2.626659c-0.01967,-0.62376 -0.01067,-1.808998 -0.01067,-2.84267c0,-0.833328 0,-1.666656 0,-2.528828c0,-0.904499 0,-1.804501 0,-2.704502c0,-0.908997 -0.01196,-1.933517 0.0045,-2.605328c0.01825,-0.74445 0.25317,-1.8368 0.570169,-2.64534c0.34396,-0.8773 0.40087,-1.599602 0.42083,-2.344002c0.032041,-1.195141 0.138611,-1.914707 0.709841,-2.658001c0.555099,-0.722309 1.02218,-1.508369 1.461329,-2.347328c0.39379,-0.752312 0.68002,-1.5145 0.844,-2.400002c0.15379,-0.83046 1.17672,-1.181438 1.704,-1.769337c0.58643,-0.653851 0.61655,-1.591492 1.452,-2.16399c0.68951,-0.472511 1.127769,-1.015633 1.723499,-1.905012c0.470381,-0.70224 1.369902,-0.65373 2.06167,-1.11433c0.69499,-0.462749 1.39999,-0.645079 2.44416,-0.647329c0.65867,-0.001419 1.65522,-0.016729 2.58317,0.02083c0.60626,0.02454 1.7766,0.35828 2.35417,1.14583c0.36146,0.492889 0.906851,1.340591 1.9095,1.718998c0.809052,0.305351 1.75716,0.114342 2.557159,0.114342c0.900002,0 1.800022,-0.005402 2.700001,0c0.889381,0.005329 1.42094,0.61544 2.069328,1.200001c0.545513,0.49181 1.562473,0.983479 2.056,1.436001c0.719963,0.66013 1.373882,1.364799 1.890671,1.879997c0.730209,0.727962 1.354393,1.30418 2.136673,1.784c0.6833,0.419109 1.645248,0.95639 2.146,1.585331c0.568577,0.714119 0.960468,1.34808 1.59066,2.063999c0.62085,0.705299 0.798119,1.39616 1.326668,2.133339c0.470482,0.65617 0.89661,1.499451 1.258671,2.317333c0.347889,0.785877 0.8475,1.472187 1.325329,2.252659c0.418552,0.683651 0.881069,1.481621 1.457172,2.099998c0.702839,0.754421 1.24699,1.243202 2.076168,2.080669c0.533352,0.538692 1.159279,1.337952 1.566662,1.981331c0.392929,0.620541 1.19754,1.12096 1.921169,1.849503c0.559811,0.56361 1.018009,1.310078 1.436161,2.192829c0.333488,0.704018 0.98489,1.43932 1.5,1.923008c0.452316,0.424721 1.179138,1.417412 1.686337,2.283333c0.268612,0.458588 0.765842,1.40667 0.98933,1.873337c0.585022,1.221519 0.794914,2.144142 1.224998,2.797989c0.561783,0.85405 1.365005,1.26239 1.841171,1.612671c1.036232,0.762283 1.614532,1.278992 2.322174,1.973831c0.503296,0.494209 1.159416,1.173592 2.042656,1.6175c0.808182,0.406189 1.404633,0.913162 2.335999,1.056839c0.889496,0.137215 1.800003,0.004501 2.700005,0.004501c0.900009,0 1.799995,0 2.699997,0c0.900002,0 1.700012,0 2.599998,0c0.900002,0 1.800003,0 2.71067,0c0.910675,0 1.768074,0.085968 2.704002,-0.001343c0.896751,-0.083649 1.485329,-0.573326 2.364502,-0.998657l0.51017,-0.610672l0.031502,-0.8685"/>
 </g>
</svg>